<svg width="400" height="300" viewBox="0 0 400 300" fill="none" xmlns="http://www.w3.org/2000/svg">
<path d="M201.65 271.7C245.192 271.7 280.49 268.705 280.49 265.01C280.49 261.315 245.192 258.32 201.65 258.32C158.107 258.32 122.81 261.315 122.81 265.01C122.81 268.705 158.107 271.7 201.65 271.7Z" fill="#35CE8D"/>
<path d="M164.449 101.17H154.529V265.02H164.449V101.17Z" fill="white"/>
<path d="M164.449 265.47H154.529C154.407 265.47 154.29 265.422 154.204 265.335C154.118 265.249 154.069 265.132 154.069 265.01V101.17C154.069 101.048 154.118 100.931 154.204 100.845C154.29 100.758 154.407 100.71 154.529 100.71H164.449C164.509 100.71 164.569 100.722 164.624 100.745C164.679 100.768 164.729 100.802 164.771 100.845C164.813 100.888 164.846 100.939 164.868 100.995C164.89 101.05 164.901 101.11 164.899 101.17V265C164.902 265.061 164.892 265.121 164.871 265.178C164.85 265.235 164.817 265.287 164.775 265.331C164.733 265.375 164.682 265.41 164.626 265.434C164.57 265.458 164.51 265.47 164.449 265.47V265.47ZM154.989 264.56H163.989V101.62H154.989V264.56Z" fill="#28536B"/>
<path d="M164.449 144.36H154.529V171.48H164.449V144.36Z" fill="#28536B"/>
<path d="M164.45 171.92H154.53C154.413 171.92 154.301 171.874 154.219 171.791C154.136 171.709 154.09 171.597 154.09 171.48V144.36C154.09 144.243 154.136 144.131 154.219 144.049C154.301 143.966 154.413 143.92 154.53 143.92H164.45C164.567 143.92 164.678 143.966 164.761 144.049C164.843 144.131 164.89 144.243 164.89 144.36V171.48C164.89 171.597 164.843 171.709 164.761 171.791C164.678 171.874 164.567 171.92 164.45 171.92ZM155 171H164V144.8H155V171Z" fill="#28536B"/>
<path d="M258.54 72.4099C259.672 70.3607 260.353 68.0936 260.54 65.7599C260.597 63.8052 260.256 61.8593 259.54 60.0399C258.89 58.9399 257.65 58.3199 256.87 57.3199C255.36 55.3199 255.87 52.5899 256.35 50.1699C257.62 43.2399 250.77 35.7499 244.63 33.3099C241.867 32.1772 238.825 31.9155 235.91 32.5599C234.517 32.7491 233.182 33.2406 232 33.9999C230.93 34.7799 230.39 35.9499 229.23 36.5099C228.23 36.9699 227.32 37.0099 226.34 37.4299C225.887 37.6299 225.468 37.8999 225.1 38.2299C222.48 40.5799 219.38 46.6499 220.51 50.2299C220.92 51.4899 221.38 53.0099 220.51 54.0199C220.101 54.436 219.585 54.7303 219.02 54.8699C215.64 55.8699 210.02 56.4599 212.56 61.6599C213.24 63.0199 214.27 64.3599 214.13 65.8799C213.88 68.5599 210.45 69.4799 208.65 71.4899C205.92 74.4899 207.6 79.6399 210.72 82.2899C215.64 86.4499 222.72 86.5999 229.17 86.1699C236 85.6999 243 84.7799 249 81.5999C253.005 79.5293 256.321 76.3356 258.54 72.4099Z" fill="white"/>
<path d="M224.85 86.78C219.68 86.78 214.42 85.96 210.48 82.62C208.439 80.8906 207.155 78.4327 206.9 75.77C206.818 74.9435 206.906 74.1089 207.159 73.3178C207.411 72.5266 207.824 71.7956 208.37 71.17C209.1 70.4292 209.916 69.7779 210.8 69.23C212.23 68.23 213.59 67.33 213.74 65.83C213.704 64.7542 213.357 63.7121 212.74 62.83C212.56 62.52 212.39 62.2 212.24 61.89C211.873 61.3189 211.642 60.6709 211.566 59.9963C211.489 59.3217 211.57 58.6386 211.8 58C212.65 56.12 215.24 55.45 217.52 54.85C218.02 54.72 218.52 54.6 218.95 54.46C219.431 54.3518 219.872 54.109 220.22 53.76C220.87 52.98 220.56 51.76 220.12 50.4C218.89 46.56 222.12 40.4 224.83 37.95C225.23 37.5589 225.693 37.2377 226.2 37C226.669 36.806 227.154 36.6521 227.65 36.54C228.138 36.4367 228.614 36.2826 229.07 36.08C229.63 35.7618 230.12 35.3331 230.51 34.82C230.885 34.3723 231.307 33.9666 231.77 33.61C232.997 32.8041 234.387 32.2783 235.84 32.07C238.849 31.4074 241.989 31.6795 244.84 32.85C251.54 35.51 258.11 43.29 256.84 50.21V50.32C256.42 52.62 255.94 55.24 257.3 57C257.646 57.4069 258.031 57.7787 258.45 58.11C259.056 58.5843 259.58 59.1552 260 59.8C260.76 61.08 261.13 64.5 261 65.8C260.812 68.2 260.113 70.5321 258.95 72.64V72.64C256.697 76.6482 253.312 79.9037 249.22 82C242.96 85.31 235.61 86.19 229.22 86.62C227.82 86.71 226.34 86.78 224.85 86.78ZM239.11 32.67C238.065 32.67 237.022 32.7806 236 33C234.673 33.1794 233.403 33.6508 232.28 34.38C231.869 34.6956 231.497 35.058 231.17 35.46C230.7 36.067 230.107 36.568 229.43 36.93C228.922 37.1661 228.388 37.3439 227.84 37.46C227.393 37.5583 226.955 37.692 226.53 37.86C226.123 38.0424 225.745 38.2851 225.41 38.58C222.93 40.81 219.89 46.75 220.96 50.07C221.36 51.33 221.96 53.07 220.89 54.29C220.427 54.7797 219.834 55.1267 219.18 55.29C218.73 55.43 218.18 55.55 217.72 55.69C215.64 56.23 213.27 56.85 212.6 58.33C212.43 58.8436 212.378 59.3889 212.447 59.9255C212.516 60.4621 212.705 60.9762 213 61.43C213.15 61.73 213.32 62.03 213.49 62.33C214.22 63.3816 214.614 64.6298 214.62 65.91C214.43 67.84 212.83 68.91 211.28 69.98C210.461 70.4891 209.703 71.0896 209.02 71.77C208.555 72.305 208.205 72.93 207.991 73.6061C207.778 74.2821 207.706 74.9949 207.78 75.7C208.031 78.1162 209.202 80.3434 211.05 81.92C215.86 86 222.91 86.11 229.17 85.69C235.43 85.27 242.65 84.41 248.76 81.18C252.693 79.1634 255.945 76.0332 258.11 72.18C259.21 70.1859 259.871 67.9801 260.05 65.71C260.1 63.8475 259.787 61.9932 259.13 60.25C258.761 59.7058 258.305 59.2261 257.78 58.83C257.31 58.46 256.881 58.041 256.5 57.58C254.88 55.49 255.41 52.66 255.87 50.17V50.06C257.12 43.25 250.05 35.95 244.43 33.72C242.739 33.0371 240.934 32.6809 239.11 32.67V32.67Z" fill="#28536B"/>
<path d="M214.78 263.3C214.78 263.3 211.32 267.67 212.2 269.08C213.08 270.49 229.47 267.49 231.58 265.99C233.69 264.49 239.82 253.92 239.93 253.56C240.04 253.2 234.86 247.56 234.86 247.56L214.78 263.3Z" fill="#28536B"/>
<path d="M214.07 269.89C213.604 269.9 213.139 269.866 212.679 269.79C212.512 269.774 212.349 269.723 212.202 269.643C212.054 269.562 211.924 269.452 211.82 269.32C210.82 267.72 213.819 263.8 214.439 263.03C214.457 262.999 214.481 262.972 214.509 262.95L234.589 247.19C234.671 247.114 234.778 247.072 234.889 247.072C235.001 247.072 235.108 247.114 235.189 247.19C240.539 253.04 240.439 253.36 240.349 253.64C240.209 254.14 234.009 264.77 231.839 266.31C230.089 267.59 218.81 269.89 214.07 269.89ZM215.07 263.61C213.75 265.29 212.069 268.08 212.539 268.85C213.689 269.79 229.139 267.17 231.299 265.64C233.139 264.33 238.689 254.98 239.419 253.54C239.019 252.89 236.859 250.42 234.779 248.13L215.07 263.61Z" fill="#28536B"/>
<path d="M231.72 262.25C231.72 262.25 227.84 268.34 229.07 269.37C230.3 270.4 243.37 268.37 244.31 267.73C245.25 267.09 249.84 256.73 249.84 256.73L250 262.22L252.47 260.71C252.47 260.71 250.32 247.86 249.39 247.05C248.46 246.24 231.72 262.25 231.72 262.25Z" fill="#28536B"/>
<path d="M230.999 270.09C230.229 270.174 229.45 270.042 228.749 269.71C227.379 268.55 230.089 263.94 231.319 262.01C231.337 261.979 231.361 261.952 231.389 261.93C248.389 245.62 249.299 246.39 249.639 246.68C250.639 247.52 252.359 257.55 252.869 260.6C252.883 260.686 252.872 260.775 252.836 260.855C252.801 260.935 252.743 261.002 252.669 261.05L250.199 262.55C250.133 262.589 250.057 262.61 249.979 262.61C249.902 262.61 249.826 262.589 249.759 262.55C249.692 262.511 249.636 262.456 249.595 262.389C249.555 262.323 249.532 262.247 249.529 262.17L249.419 258.61C247.919 261.95 245.319 267.54 244.529 268.07C243.999 268.46 235.329 270.09 230.999 270.09ZM231.999 262.53C230.059 265.58 228.799 268.62 229.289 269.04C230.289 269.78 242.779 268.11 244.009 267.36C244.559 266.92 247.169 261.5 249.369 256.51C249.41 256.418 249.481 256.342 249.57 256.295C249.658 256.248 249.76 256.232 249.859 256.25C249.957 256.271 250.045 256.324 250.11 256.4C250.174 256.475 250.213 256.57 250.219 256.67L250.359 261.41L251.919 260.41C250.919 254.66 249.689 248.51 249.109 247.41C247.619 248.09 239.339 255.56 232.059 262.53H231.999Z" fill="#28536B"/>
<path d="M221.71 244L222.79 250.81C222.79 250.81 218.25 259.17 214.79 263.35C214.79 263.35 220.79 262.51 223.51 261.2C226.23 259.89 234.87 247.58 234.87 247.58L231.4 238.15L221.71 244Z" fill="white"/>
<path d="M214.78 263.76C214.699 263.76 214.62 263.737 214.551 263.695C214.483 263.652 214.427 263.592 214.39 263.52C214.337 263.445 214.309 263.356 214.309 263.265C214.309 263.173 214.337 263.084 214.39 263.01C217.55 259.2 221.67 251.77 222.27 250.67L221.26 244C221.246 243.91 221.259 243.818 221.299 243.736C221.338 243.654 221.401 243.585 221.48 243.54L231.15 237.69C231.21 237.658 231.277 237.642 231.345 237.642C231.413 237.642 231.48 237.658 231.54 237.69C231.604 237.71 231.663 237.745 231.711 237.792C231.76 237.839 231.797 237.896 231.82 237.96L235.29 247.39C235.322 247.455 235.338 247.527 235.338 247.6C235.338 247.673 235.322 247.744 235.29 247.81C234.93 248.32 226.57 260.23 223.75 261.58C220.93 262.93 215.14 263.74 214.9 263.77L214.78 263.76ZM222.21 244.18L223.21 250.69C223.225 250.786 223.207 250.885 223.16 250.97C220.965 255.018 218.521 258.926 215.84 262.67C218.383 262.3 220.878 261.653 223.28 260.74C225.4 259.74 231.84 251 234.28 247.47L231.08 238.77L222.21 244.18Z" fill="#28536B"/>
<path d="M239.63 242.89C239.239 245.233 238.627 247.533 237.8 249.76C236.47 253.26 231.72 262.25 231.72 262.25L243.22 263.25C243.22 263.25 248 255.25 248.53 252.87C249.06 250.49 249.9 242.61 249.9 242.61L239.63 242.89Z" fill="white"/>
<path d="M243.22 263.67L231.72 262.67C231.644 262.664 231.571 262.639 231.508 262.597C231.445 262.555 231.394 262.497 231.36 262.43C231.325 262.363 231.308 262.29 231.308 262.215C231.308 262.14 231.325 262.066 231.36 262C231.36 261.91 236.11 253 237.41 249.56C238.225 247.365 238.831 245.098 239.22 242.79C239.234 242.685 239.285 242.588 239.363 242.516C239.442 242.445 239.543 242.404 239.65 242.4L249.92 242.1C250.049 242.104 250.173 242.153 250.27 242.24C250.313 242.289 250.346 242.346 250.367 242.407C250.387 242.469 250.395 242.535 250.39 242.6C250.39 242.93 249.54 250.6 249.01 252.91C248.48 255.22 243.85 263.09 243.65 263.42C243.612 263.5 243.55 263.567 243.473 263.611C243.397 263.656 243.308 263.676 243.22 263.67V263.67ZM232.45 261.85L242.97 262.74C243.77 261.38 247.63 254.74 248.08 252.74C248.53 250.74 249.19 244.85 249.38 243.06L240.02 243.34C239.623 245.583 239.024 247.785 238.23 249.92C237.09 252.92 233.54 259.75 232.45 261.85Z" fill="#28536B"/>
<path d="M254.549 136.67C259.461 143.572 261.813 151.971 261.199 160.42C260.419 172.07 257.199 221.83 252.309 244.89L238.739 246L232.239 167.44L233.389 137.86L254.549 136.67Z" fill="#28536B"/>
<path d="M238.74 246.45C238.634 246.453 238.531 246.418 238.45 246.35C238.362 246.274 238.308 246.166 238.3 246.05L231.8 167.49L233 137.85C233.007 137.741 233.053 137.638 233.131 137.561C233.208 137.484 233.311 137.437 233.42 137.43L254.57 136.23C254.64 136.225 254.71 136.237 254.774 136.265C254.839 136.293 254.895 136.336 254.94 136.39C259.897 143.392 262.281 151.892 261.69 160.45L261.6 161.91C258.9 202.28 255.94 230.23 252.79 244.98C252.769 245.073 252.719 245.157 252.647 245.22C252.575 245.283 252.485 245.322 252.39 245.33L238.82 246.45H238.74ZM233.82 138.29L232.68 167.47L239.14 245.54L251.94 244.48C255.06 229.69 258 201.89 260.67 161.85L260.76 160.39C261.318 152.13 259.054 143.925 254.34 137.12L233.82 138.29Z" fill="#28536B"/>
<path d="M238.189 137.17L214.939 138.47C214.939 138.47 198.779 186.62 198.779 195.22C198.779 203.82 218.489 249.68 218.489 249.68L234.609 241.44L220.099 199.52L241.419 162.25L238.189 137.17Z" fill="#28536B"/>
<path d="M218.49 250.12H218.34C218.282 250.1 218.229 250.069 218.185 250.027C218.14 249.986 218.104 249.936 218.08 249.88C217.28 248 198.34 203.83 198.34 195.24C198.34 186.65 213.86 140.32 214.53 138.35C214.556 138.266 214.608 138.192 214.678 138.139C214.747 138.085 214.832 138.054 214.92 138.05L238.17 136.75C238.28 136.744 238.389 136.78 238.474 136.85C238.559 136.92 238.615 137.02 238.63 137.13L241.86 162.21C241.871 162.307 241.85 162.406 241.8 162.49L220.58 199.58L235 241.3C235.033 241.4 235.029 241.508 234.988 241.606C234.948 241.703 234.874 241.783 234.78 241.83L218.66 250.08C218.606 250.104 218.548 250.117 218.49 250.12V250.12ZM215.27 138.9C213.94 142.9 199.22 187.13 199.22 195.22C199.22 203.31 216.7 244.37 218.71 249.08L234.07 241.22L219.68 199.66C219.653 199.604 219.639 199.542 219.639 199.48C219.639 199.418 219.653 199.356 219.68 199.3L241 162.16L237.85 137.63L215.27 138.9Z" fill="#28536B"/>
<path d="M218 97.67C218 97.67 179 110.22 173.75 105.59C168.5 100.96 166.5 61.72 166.5 61.72L179.93 58.25C179.93 58.25 186.31 84.16 187.64 84.99C188.81 85.72 205.13 79.33 221.41 75.66" fill="#28536B"/>
<path d="M178.36 107C176.05 107 174.3 106.67 173.36 105.9C167.99 101.2 166.04 63.3298 165.96 61.7198C165.954 61.6183 165.984 61.5179 166.044 61.4358C166.104 61.3538 166.191 61.2951 166.29 61.2698L179.72 57.7898C179.776 57.7749 179.835 57.7713 179.893 57.7793C179.951 57.7874 180.006 57.8068 180.057 57.8366C180.107 57.8664 180.151 57.9059 180.186 57.9528C180.22 57.9997 180.246 58.0531 180.26 58.1098C182.66 67.8498 186.82 83.6398 187.8 84.5998C188.37 84.7398 192.8 83.3699 197.41 81.9099C203.78 79.9099 212.51 77.1598 221.21 75.1998C221.266 75.1865 221.325 75.1845 221.382 75.1939C221.439 75.2033 221.494 75.2239 221.543 75.2546C221.593 75.2852 221.635 75.3253 221.669 75.3726C221.703 75.4198 221.727 75.4733 221.74 75.5298C221.764 75.6451 221.741 75.7651 221.678 75.8642C221.614 75.9633 221.514 76.0335 221.4 76.0598C212.74 78.0598 204.03 80.7498 197.67 82.7498C189.98 85.1698 187.95 85.7498 187.3 85.3298C185.97 84.4898 181.13 65.3298 179.51 58.7598L166.86 62.0298C167.08 66.0298 169.12 101.03 173.94 105.23C178.13 108.89 206.94 100.69 217.76 97.2299C217.872 97.1952 217.994 97.2061 218.099 97.2603C218.204 97.3146 218.283 97.4078 218.32 97.5198C218.354 97.6312 218.343 97.7517 218.288 97.8548C218.234 97.958 218.141 98.0353 218.03 98.0698C216.74 98.5198 190.19 107 178.36 107Z" fill="#28536B"/>
<path d="M231.26 74.3101C231.26 74.3101 221.52 82.9301 220 89.6201C218.48 96.3101 218 138.3 218 138.3L247.64 141.3C247.64 141.3 245.37 94.8201 248.64 86.8801C251.91 78.9401 253.03 75.1001 253.03 75.1001L231.26 74.3101Z" fill="#FDCB2E"/>
<path d="M232.81 67.25L231.81 77.12C231.81 77.12 232.29 82.73 238.46 81.61C240.28 81.265 242.001 80.5177 243.496 79.4225C244.99 78.3273 246.222 76.912 247.1 75.28C247.272 74.4483 247.319 73.5956 247.24 72.75L247.55 66.96C247.71 64.06 248.11 61.05 248.03 58.14C247.92 54.65 249.19 51.14 245.18 50.46C243.34 50.16 237.41 48.62 237.53 45.81C237.447 47.7533 238.092 49.6575 239.34 51.15L235.9 48.87C234.776 48.2056 233.763 47.3687 232.9 46.39C232.466 45.9016 232.151 45.3205 231.978 44.6912C231.804 44.0619 231.778 43.4013 231.9 42.76C226.46 48.18 227.3 55.02 227.26 62.08C227.24 65.21 229.45 67.72 232.81 67.25Z" fill="white"/>
<path d="M236.929 82.22C235.706 82.2573 234.506 81.8842 233.519 81.16C232.318 80.1505 231.548 78.7191 231.369 77.16L232.299 67.75C230.977 67.8439 229.671 67.4087 228.669 66.54C228.054 65.9734 227.569 65.2807 227.246 64.5093C226.923 63.7378 226.771 62.9058 226.799 62.07C226.799 61.21 226.799 60.34 226.799 59.48C226.739 53.23 226.679 47.32 231.589 42.48C231.659 42.411 231.75 42.3667 231.848 42.3541C231.945 42.3414 232.044 42.3611 232.129 42.41C232.217 42.4594 232.285 42.536 232.325 42.6281C232.365 42.7201 232.373 42.8226 232.349 42.92C232.247 43.4937 232.276 44.0831 232.434 44.6441C232.591 45.2051 232.873 45.7233 233.259 46.16C234.103 47.0958 235.085 47.8983 236.169 48.54L237.849 49.65C237.3 48.4576 237.039 47.1521 237.089 45.84C237.092 45.7796 237.106 45.7203 237.132 45.6654C237.157 45.6106 237.193 45.5613 237.238 45.5205C237.283 45.4796 237.335 45.4479 237.392 45.4273C237.449 45.4066 237.509 45.3973 237.569 45.4C237.69 45.4077 237.804 45.462 237.886 45.5515C237.968 45.641 238.012 45.7587 238.009 45.88V45.88C237.909 48.11 242.859 49.66 245.269 50.06C248.839 50.65 248.699 53.38 248.559 56.06C248.559 56.76 248.479 57.49 248.499 58.2C248.524 60.2033 248.437 62.2064 248.239 64.2C248.159 65.2 248.079 66.2 248.029 67.11L247.709 72.89C247.709 73.08 247.709 73.32 247.709 73.59C247.793 74.2626 247.728 74.9452 247.519 75.59C246.608 77.2909 245.326 78.7653 243.768 79.9043C242.21 81.0432 240.417 81.8175 238.519 82.17C237.992 82.2361 237.46 82.2529 236.929 82.22V82.22ZM232.279 77.16C232.341 77.8602 232.561 78.5372 232.922 79.1403C233.283 79.7433 233.776 80.2566 234.364 80.6416C234.952 81.0266 235.62 81.2733 236.317 81.3631C237.014 81.4529 237.723 81.3834 238.389 81.16C240.139 80.8319 241.794 80.1165 243.232 79.0662C244.67 78.016 245.854 76.6574 246.699 75.09C246.825 74.5699 246.859 74.0318 246.799 73.5C246.799 73.21 246.799 72.93 246.799 72.72L247.109 66.94C247.169 65.94 247.249 64.94 247.329 64C247.525 62.0564 247.612 60.1034 247.589 58.15C247.589 57.4 247.589 56.65 247.649 55.93C247.799 53.02 247.759 51.35 245.129 50.93C245.059 50.93 240.509 50.14 238.289 48.2C238.568 49.1838 239.052 50.0973 239.709 50.88C239.781 50.9635 239.821 51.0699 239.821 51.18C239.821 51.2901 239.781 51.3966 239.709 51.48C239.636 51.5614 239.536 51.6133 239.428 51.6262C239.319 51.6391 239.209 51.612 239.119 51.55L235.669 49.27C234.509 48.5755 233.46 47.709 232.559 46.7C231.916 45.9302 231.503 44.9942 231.369 44C227.599 48.45 227.649 53.81 227.709 59.47C227.709 60.34 227.709 61.21 227.709 62.08C227.687 62.7837 227.814 63.4842 228.081 64.1356C228.348 64.787 228.749 65.3746 229.259 65.86C229.736 66.2604 230.294 66.5519 230.896 66.7143C231.497 66.8766 232.126 66.9059 232.739 66.8C232.808 66.7887 232.878 66.7937 232.944 66.8145C233.01 66.8354 233.07 66.8715 233.119 66.92C233.168 66.9678 233.206 67.0257 233.23 67.0896C233.254 67.1535 233.264 67.2219 233.259 67.29L232.259 77.16H232.279Z" fill="#28536B"/>
<path d="M232.409 72.1001C234.838 72.3776 237.281 71.7078 239.229 70.2301C240.026 69.6169 240.68 68.8379 241.147 67.947C241.613 67.056 241.88 66.0744 241.929 65.0701C241.929 65.0701 237.319 67.5701 232.809 67.2501L232.409 72.1001Z" fill="#28536B"/>
<path d="M233.449 72.6001C233.082 72.6042 232.714 72.5841 232.349 72.5401C232.239 72.5229 232.139 72.4652 232.069 72.3783C231.999 72.2915 231.963 72.1816 231.969 72.0701L232.369 67.2101C232.38 67.0951 232.435 66.9887 232.523 66.9138C232.61 66.839 232.724 66.8017 232.839 66.8101C237.169 67.1101 241.669 64.7101 241.719 64.6901C241.784 64.6513 241.859 64.6309 241.934 64.6309C242.01 64.6309 242.084 64.6513 242.149 64.6901C242.213 64.7268 242.267 64.7791 242.305 64.842C242.344 64.9049 242.366 64.9764 242.369 65.0501C242.33 66.1217 242.053 67.1713 241.561 68.1238C241.068 69.0763 240.371 69.9082 239.519 70.5601C237.798 71.9303 235.649 72.6523 233.449 72.6001V72.6001ZM232.889 71.7001C235.06 71.8584 237.213 71.2143 238.939 69.8901C240.222 68.8643 241.104 67.4201 241.429 65.8101C238.867 67.0439 236.063 67.6929 233.219 67.7101L232.889 71.7001Z" fill="#28536B"/>
<path d="M234.15 59.9998C233.737 60.0408 233.32 59.9913 232.928 59.8549C232.536 59.7185 232.178 59.4984 231.88 59.2098C231.11 58.2098 233.4 55.0798 234.88 53.3198C234.954 53.2283 235.062 53.1701 235.179 53.1579C235.296 53.1457 235.413 53.1806 235.505 53.2548C235.596 53.3291 235.654 53.4367 235.667 53.5539C235.679 53.6711 235.644 53.7883 235.57 53.8798C233.86 55.9798 232.49 58.2298 232.65 58.6898C233.02 59.1898 234.43 59.1498 235.05 59.0498C235.108 59.0399 235.167 59.0416 235.224 59.0549C235.281 59.0682 235.335 59.0928 235.383 59.1273C235.43 59.1618 235.47 59.2055 235.501 59.2557C235.531 59.3059 235.551 59.3617 235.56 59.4198C235.57 59.4771 235.568 59.5358 235.554 59.5924C235.541 59.649 235.516 59.7023 235.482 59.749C235.447 59.7957 235.403 59.835 235.353 59.8643C235.303 59.8937 235.247 59.9126 235.19 59.9198C234.846 59.9786 234.498 60.0054 234.15 59.9998V59.9998Z" fill="#28536B"/>
<path d="M245.22 52.7499C245.714 51.5585 246.446 50.48 247.37 49.5799C247.844 49.1409 248.44 48.8562 249.079 48.7634C249.718 48.6705 250.371 48.7739 250.95 49.0599C252.17 49.7999 252.44 51.4599 252.3 52.8799C252.111 54.488 251.672 56.0568 251 57.5299C250.678 58.4299 250.131 59.2322 249.41 59.8599C249.045 60.1677 248.589 60.3472 248.112 60.3706C247.635 60.3941 247.163 60.2604 246.77 59.9899" fill="white"/>
<path d="M247.899 60.8299C247.383 60.8374 246.881 60.6641 246.479 60.3399C246.433 60.3019 246.395 60.2551 246.367 60.2023C246.339 60.1496 246.322 60.0918 246.317 60.0324C246.311 59.9729 246.317 59.913 246.335 59.856C246.352 59.7989 246.381 59.7459 246.419 59.6999C246.457 59.654 246.504 59.616 246.557 59.5881C246.61 59.5602 246.667 59.543 246.727 59.5374C246.786 59.5318 246.846 59.538 246.903 59.5556C246.96 59.5732 247.013 59.6019 247.059 59.6399C247.376 59.8397 247.748 59.9338 248.122 59.9087C248.496 59.8835 248.852 59.7404 249.139 59.4999C249.795 58.9178 250.29 58.1777 250.579 57.3499C251.234 55.9181 251.662 54.3933 251.849 52.8299C251.909 52.2399 251.989 50.2299 250.719 49.4499C250.221 49.2169 249.664 49.138 249.121 49.2236C248.577 49.3091 248.072 49.5551 247.669 49.9299C246.809 50.7867 246.129 51.8067 245.669 52.9299C245.613 53.0387 245.517 53.1214 245.402 53.1606C245.286 53.1998 245.159 53.1924 245.049 53.1399C244.996 53.1134 244.948 53.0765 244.909 53.0313C244.87 52.9862 244.84 52.9337 244.821 52.8769C244.803 52.8201 244.795 52.7602 244.8 52.7006C244.805 52.641 244.822 52.583 244.849 52.5299C245.367 51.2775 246.14 50.1468 247.119 49.2099C247.666 48.7092 248.352 48.3873 249.087 48.2872C249.821 48.1872 250.569 48.3137 251.229 48.6499C252.919 49.6499 252.889 51.9699 252.799 52.8999C252.603 54.5564 252.151 56.1723 251.459 57.6899C251.105 58.6626 250.509 59.5295 249.729 60.2099C249.201 60.6076 248.56 60.8249 247.899 60.8299V60.8299Z" fill="#28536B"/>
<path d="M241.93 54.8099C242.25 54.8099 242.51 54.1517 242.51 53.3399C242.51 52.528 242.25 51.8699 241.93 51.8699C241.609 51.8699 241.35 52.528 241.35 53.3399C241.35 54.1517 241.609 54.8099 241.93 54.8099Z" fill="#28536B"/>
<path d="M230.93 54.8099C231.25 54.8099 231.51 54.1517 231.51 53.3399C231.51 52.528 231.25 51.8699 230.93 51.8699C230.609 51.8699 230.35 52.528 230.35 53.3399C230.35 54.1517 230.609 54.8099 230.93 54.8099Z" fill="#28536B"/>
<path d="M231.539 55.9999H228.539C227.708 55.9999 226.911 55.6705 226.323 55.0838C225.734 54.4971 225.402 53.701 225.399 52.8699V51.1399C225.399 51.0206 225.447 50.9061 225.531 50.8217C225.616 50.7374 225.73 50.6899 225.849 50.6899H234.259C234.379 50.6899 234.493 50.7374 234.578 50.8217C234.662 50.9061 234.709 51.0206 234.709 51.1399V52.8499C234.711 53.2657 234.63 53.6775 234.47 54.0616C234.311 54.4457 234.078 54.7944 233.783 55.0874C233.488 55.3805 233.138 55.612 232.753 55.7687C232.367 55.9253 231.955 56.0039 231.539 55.9999V55.9999ZM226.259 51.5999V52.8699C226.259 53.4667 226.496 54.039 226.918 54.4609C227.34 54.8829 227.913 55.1199 228.509 55.1199H231.509C232.106 55.1199 232.678 54.8829 233.1 54.4609C233.522 54.039 233.759 53.4667 233.759 52.8699V51.5799L226.259 51.5999Z" fill="#28536B"/>
<path d="M241.789 55.9999H238.789C237.958 55.9999 237.161 55.6705 236.573 55.0838C235.984 54.4971 235.652 53.701 235.649 52.8699V51.1399C235.649 51.0206 235.697 50.9061 235.781 50.8217C235.866 50.7374 235.98 50.6899 236.099 50.6899H244.509C244.629 50.6899 244.743 50.7374 244.828 50.8217C244.912 50.9061 244.959 51.0206 244.959 51.1399V52.8499C244.961 53.2657 244.88 53.6775 244.72 54.0616C244.561 54.4457 244.328 54.7944 244.033 55.0874C243.738 55.3805 243.388 55.612 243.003 55.7687C242.617 55.9253 242.205 56.0039 241.789 55.9999V55.9999ZM236.509 51.5999V52.8699C236.509 53.4667 236.746 54.039 237.168 54.4609C237.59 54.8829 238.163 55.1199 238.759 55.1199H241.759C242.056 55.1186 242.349 55.0588 242.622 54.9439C242.895 54.829 243.143 54.6613 243.351 54.4503C243.559 54.2394 243.724 53.9895 243.835 53.7148C243.946 53.4402 244.002 53.1463 243.999 52.8499V51.5799L236.509 51.5999Z" fill="#28536B"/>
<path d="M236.19 52.79C236.106 52.7892 236.024 52.7687 235.95 52.73C235.712 52.6198 235.452 52.5627 235.19 52.5627C234.928 52.5627 234.668 52.6198 234.43 52.73C234.324 52.7785 234.203 52.7837 234.092 52.7445C233.982 52.7053 233.892 52.6248 233.84 52.52C233.805 52.428 233.801 52.3266 233.83 52.2323C233.859 52.138 233.919 52.0562 234 52C234.369 51.8152 234.777 51.719 235.19 51.719C235.603 51.719 236.011 51.8152 236.38 52C236.43 52.0306 236.472 52.0708 236.506 52.1181C236.54 52.1655 236.564 52.2191 236.577 52.2758C236.59 52.3325 236.592 52.3913 236.582 52.4487C236.572 52.506 236.551 52.5609 236.52 52.61C236.482 52.6631 236.433 52.7068 236.376 52.738C236.319 52.7692 236.255 52.787 236.19 52.79V52.79Z" fill="#28536B"/>
<path d="M247.25 72.75C247.25 72.75 242.76 90.89 241.35 102.13C240.5 108.93 234.61 131.47 239.35 146.06L264.53 146.9C264.53 146.9 260.74 118.75 260.74 115.77C260.74 112.79 265.45 92.17 265.45 92.17C265.45 92.17 282.52 108.17 282.28 111.43C282.04 114.69 267.92 132.76 267.92 132.76L275.83 143.18C275.83 143.18 302.61 126.57 300.83 113.18C299.05 99.79 276.8 79.44 272.51 75.11C266.93 69.48 247.25 72.75 247.25 72.75Z" fill="#28536B"/>
<path d="M264.52 147.34L239.33 146.5C239.24 146.496 239.154 146.466 239.083 146.412C239.011 146.359 238.958 146.285 238.93 146.2C235.06 134.27 238.16 117.48 240.01 107.45C240.43 105.16 240.77 103.35 240.92 102.08C242.32 90.9399 246.79 72.8199 246.83 72.6399C246.85 72.5555 246.896 72.4791 246.96 72.4204C247.024 72.3616 247.104 72.3232 247.19 72.3099C248 72.1699 267.19 69.0699 272.83 74.7999L274.71 76.6399C281.55 83.2999 299.71 100.97 301.31 113.12C302.05 118.82 298.01 125.69 289.31 133.53C285.162 137.201 280.735 140.545 276.07 143.53C275.977 143.587 275.866 143.607 275.758 143.587C275.651 143.566 275.555 143.507 275.49 143.42L267.56 133C267.501 132.922 267.47 132.827 267.47 132.73C267.47 132.633 267.501 132.538 267.56 132.46C271.46 127.46 281.63 113.91 281.83 111.37C281.99 109.23 272.25 99.1899 265.7 92.9899C264.86 96.7199 261.17 113.17 261.17 115.74C261.17 118.65 264.92 146.53 264.96 146.81C264.97 146.873 264.966 146.937 264.949 146.998C264.931 147.06 264.9 147.116 264.858 147.164C264.816 147.212 264.764 147.25 264.705 147.275C264.647 147.3 264.583 147.312 264.52 147.31V147.34ZM239.66 145.63L264.02 146.45C263.49 142.45 260.29 118.55 260.29 115.77C260.29 112.77 264.82 92.9099 265.01 92.0699C265.028 91.994 265.065 91.9238 265.117 91.8661C265.169 91.8084 265.236 91.7649 265.31 91.7399C265.384 91.7201 265.462 91.7188 265.537 91.7363C265.612 91.7537 265.682 91.7893 265.74 91.8399C267.51 93.4999 282.96 108.12 282.74 111.46C282.49 114.61 270.67 129.96 268.49 132.77L275.95 142.59C279.04 140.59 302.03 125.38 300.45 113.23C298.92 101.39 280.9 83.8699 274.12 77.2299C273.32 76.4599 272.67 75.8299 272.22 75.3799C267.22 70.3799 250.07 72.7299 247.64 73.0999C247.06 75.4499 243.11 91.8299 241.82 102.15C241.66 103.45 241.32 105.26 240.9 107.57C239.17 116.83 236 133.92 239.66 145.63V145.63Z" fill="#28536B"/>
<path d="M260.55 137.67C260.458 137.672 260.368 137.648 260.29 137.6L244.23 128.05C244.172 128.017 244.122 127.973 244.081 127.92C244.041 127.868 244.011 127.808 243.994 127.743C243.977 127.679 243.973 127.612 243.982 127.547C243.991 127.481 244.014 127.418 244.047 127.36C244.081 127.303 244.126 127.254 244.18 127.214C244.233 127.174 244.294 127.146 244.358 127.13C244.422 127.114 244.489 127.111 244.555 127.122C244.621 127.132 244.683 127.155 244.74 127.19L260.8 136.74C260.913 136.807 260.996 136.916 261.03 137.043C261.063 137.17 261.046 137.306 260.98 137.42C260.936 137.495 260.873 137.557 260.798 137.601C260.722 137.645 260.637 137.668 260.55 137.67V137.67Z" fill="white"/>
<path d="M231.26 74.3101C231.26 74.3101 228.66 89.1001 227.26 98.9101C223.48 124.91 220.12 144.36 220.12 144.36C220.12 144.36 203.94 143.67 204.68 143.18C205.42 142.69 214.14 118.09 213.14 112.63C212.14 107.17 209.14 97.3101 209.89 95.0801C210.64 92.8501 215.89 78.0801 215.89 78.0801C215.89 78.0801 221.06 74.3101 231.26 74.3101Z" fill="#28536B"/>
<path d="M220.1 144.8C204.45 144.14 204.34 143.71 204.23 143.34C204.211 143.242 204.219 143.14 204.255 143.047C204.29 142.953 204.35 142.871 204.43 142.81C205.08 141.98 213.67 117.99 212.71 112.71C212.38 110.9 211.84 108.65 211.27 106.26C210.07 101.26 208.93 96.5399 209.47 94.9399C210.2 92.7299 215.4 78.0799 215.47 77.9399C215.496 77.8556 215.548 77.7819 215.62 77.7299C215.84 77.5699 221.06 73.8699 231.29 73.8699C231.354 73.8692 231.417 73.8823 231.476 73.9082C231.534 73.934 231.587 73.9721 231.63 74.0199C231.671 74.0694 231.7 74.1274 231.715 74.1897C231.731 74.252 231.732 74.317 231.72 74.3799C231.72 74.5299 229.11 89.2799 227.72 98.9699C223.99 124.69 220.62 144.24 220.58 144.43C220.565 144.542 220.506 144.645 220.416 144.714C220.326 144.783 220.212 144.814 220.1 144.8V144.8ZM205.29 143C207.21 143.31 214.74 143.73 219.73 143.94C220.22 141.09 223.35 122.61 226.8 98.8899C228.06 90.2199 230.26 77.5099 230.73 74.7899C221.93 74.9099 217 77.8999 216.22 78.4099C215.69 79.8999 210.98 93.1699 210.28 95.2599C209.83 96.6199 211.04 101.65 212.1 106.09C212.68 108.49 213.23 110.76 213.56 112.59C214.14 115.78 211.56 124.83 209.96 129.93C208.628 134.364 207.069 138.726 205.29 143Z" fill="#28536B"/>
<path d="M274.4 141.31C274.4 141.31 267.28 144.73 264.64 143.85C262 142.97 258 139.52 258 139.52C258 139.52 251.33 139.13 251.23 137.95C251.13 136.77 254.08 136.38 257.41 137.07C257.41 137.07 251.33 135.85 251.23 135.21C251.226 135.016 251.261 134.823 251.334 134.643C251.406 134.463 251.514 134.299 251.651 134.162C251.789 134.024 251.952 133.916 252.133 133.844C252.313 133.771 252.506 133.736 252.7 133.74C253.64 133.74 257.61 134.42 257.61 134.42C257.61 134.42 252.8 133.54 253.15 132.42C253.5 131.3 257.38 132.1 257.38 132.1C257.38 132.1 253.62 131.1 254.38 130.1C255.49 128.68 262.67 132.18 263.71 132.95C265.208 134.21 267.093 134.916 269.05 134.95L274.4 141.31Z" fill="white"/>
<path d="M265.68 144.45C265.276 144.46 264.874 144.403 264.49 144.28C262.02 143.46 258.49 140.56 257.82 139.97C254.63 139.77 250.88 139.27 250.82 137.97C250.8 137.782 250.827 137.593 250.899 137.418C250.97 137.244 251.084 137.09 251.23 136.97C251.669 136.639 252.185 136.426 252.73 136.35C250.9 135.78 250.85 135.43 250.82 135.23C250.792 134.993 250.816 134.754 250.89 134.528C250.965 134.301 251.087 134.094 251.25 133.92C251.435 133.706 251.664 133.534 251.921 133.415C252.178 133.296 252.457 133.233 252.74 133.23H253C252.912 133.153 252.835 133.066 252.77 132.97C252.706 132.864 252.666 132.747 252.65 132.624C252.635 132.502 252.645 132.378 252.68 132.26C252.87 131.66 253.6 131.43 254.46 131.37C254.193 131.199 253.984 130.951 253.86 130.66C253.812 130.516 253.802 130.363 253.83 130.214C253.858 130.066 253.923 129.926 254.02 129.81C255.5 127.92 263.26 132.04 264.02 132.58C265.429 133.746 267.191 134.402 269.02 134.44C269.093 134.434 269.166 134.446 269.234 134.474C269.301 134.502 269.362 134.545 269.41 134.6L274.73 140.96C274.776 141.013 274.808 141.075 274.826 141.143C274.843 141.211 274.844 141.282 274.83 141.35C274.814 141.417 274.783 141.48 274.74 141.533C274.697 141.587 274.642 141.63 274.58 141.66C274.34 141.85 268.89 144.45 265.68 144.45ZM254.31 137.19C253.44 137.103 252.564 137.285 251.8 137.71C251.68 137.81 251.69 137.88 251.69 137.92C251.96 138.33 254.87 138.92 258.03 139.07C258.13 139.071 258.227 139.111 258.3 139.18C258.3 139.18 262.25 142.57 264.78 143.42C266.64 144.04 271.41 142.17 273.67 141.15L268.88 135.42C266.911 135.341 265.017 134.641 263.47 133.42C262.02 132.34 255.47 129.52 254.77 130.48C254.84 130.78 256.17 131.4 257.5 131.74C257.614 131.773 257.712 131.848 257.773 131.95C257.834 132.052 257.855 132.174 257.83 132.29C257.801 132.403 257.73 132.502 257.632 132.565C257.534 132.628 257.415 132.651 257.3 132.63C255.41 132.27 253.68 132.34 253.58 132.63C253.74 132.96 255.66 133.63 257.69 134C257.808 134.024 257.911 134.093 257.98 134.191C258.049 134.29 258.078 134.411 258.06 134.53C258.05 134.59 258.029 134.646 257.997 134.698C257.965 134.749 257.923 134.793 257.873 134.827C257.824 134.862 257.768 134.886 257.709 134.898C257.65 134.911 257.589 134.911 257.53 134.9C256.44 134.71 253.44 134.22 252.7 134.22C252.547 134.222 252.396 134.257 252.258 134.322C252.12 134.388 251.998 134.483 251.9 134.6C251.777 134.728 251.7 134.893 251.68 135.07C253.531 135.774 255.447 136.297 257.4 136.63H257.5C257.562 136.638 257.623 136.659 257.677 136.691C257.731 136.724 257.778 136.767 257.814 136.818C257.851 136.869 257.877 136.928 257.89 136.989C257.904 137.051 257.904 137.115 257.892 137.176C257.879 137.238 257.854 137.297 257.818 137.349C257.783 137.4 257.736 137.444 257.683 137.477C257.629 137.511 257.569 137.532 257.507 137.541C257.444 137.55 257.381 137.547 257.32 137.53H257.2C256.25 137.324 255.282 137.21 254.31 137.19V137.19Z" fill="#28536B"/>
<path d="M235.82 62.9999C233.808 62.9154 231.847 62.3385 230.11 61.3199C230.01 61.2575 229.94 61.1583 229.914 61.0439C229.887 60.9295 229.908 60.8093 229.97 60.7099C230.032 60.6104 230.131 60.5398 230.246 60.5135C230.36 60.4873 230.48 60.5075 230.58 60.5699C230.64 60.5699 236.15 63.9899 239.71 60.6199C239.752 60.5798 239.801 60.5484 239.856 60.5275C239.91 60.5066 239.967 60.4965 240.025 60.4979C240.084 60.4993 240.141 60.5121 240.194 60.5356C240.247 60.5591 240.295 60.5928 240.335 60.6349C240.375 60.6769 240.406 60.7264 240.427 60.7805C240.448 60.8347 240.458 60.8924 240.457 60.9505C240.455 61.0085 240.443 61.0657 240.419 61.1188C240.396 61.1719 240.362 61.2198 240.32 61.2599C239.107 62.4093 237.49 63.0345 235.82 62.9999V62.9999Z" fill="#28536B"/>
<path d="M200.95 107.38H113.06V162.39H200.95V107.38Z" fill="white"/>
<path d="M201 162.85H113.06C112.938 162.847 112.823 162.798 112.737 162.712C112.651 162.627 112.602 162.511 112.6 162.39V107.39C112.602 107.269 112.651 107.153 112.737 107.067C112.823 106.982 112.938 106.932 113.06 106.93H201C201.12 106.933 201.234 106.982 201.318 107.068C201.403 107.154 201.45 107.27 201.45 107.39V162.39C201.45 162.51 201.403 162.626 201.318 162.712C201.234 162.798 201.12 162.847 201 162.85ZM113.56 161.93H200.56V107.84H113.56V161.93Z" fill="#28536B"/>
<path d="M168.26 60.94L167.14 54.74C167.14 54.74 158.4 51.12 157.38 48.91C155.1 43.99 162.87 50.33 164.55 50.32C166.23 50.31 165.55 47.96 165.14 47.8C162.236 47.0182 159.278 46.4566 156.29 46.12C154.29 46.12 155.93 43.56 157.8 43.21C159.67 42.86 165.54 44.3 165.54 44.3C165.54 44.3 156.84 37.6 157.83 36.47C158.82 35.34 164.61 38.47 168.04 42.54C168.04 42.54 160.76 35.25 162.21 34.08C163.66 32.91 167.55 36.95 170.38 41.21C170.38 41.21 166.1 33.21 168.82 32.54C171.54 31.87 174.37 38.54 175.41 42.67C176.84 48.42 176.41 46.67 179.88 58.25" fill="white"/>
<path d="M168.26 61.4C168.152 61.3993 168.048 61.3609 167.966 61.2915C167.884 61.2221 167.828 61.126 167.81 61.02L166.74 55.02C165.14 54.35 157.97 51.23 156.96 49.02C156.59 48.22 156.24 47.24 156.79 46.74C156.881 46.6546 156.991 46.5898 157.11 46.55C156.79 46.55 156.5 46.55 156.29 46.5C155.12 46.5 154.96 45.75 154.94 45.5C154.83 44.4 156.26 42.94 157.72 42.67C158.96 42.44 161.72 42.92 163.72 43.32C161.35 41.41 157.47 38.08 157.34 36.71C157.324 36.5983 157.332 36.4845 157.363 36.376C157.394 36.2675 157.447 36.1667 157.52 36.08C157.658 35.9452 157.822 35.8409 158.003 35.7737C158.184 35.7065 158.377 35.678 158.57 35.69C160.253 35.9524 161.849 36.618 163.22 37.63C162.22 36.35 161.57 35.13 161.61 34.37C161.612 34.229 161.645 34.0901 161.705 33.9626C161.766 33.835 161.852 33.7217 161.96 33.63C162.128 33.501 162.323 33.4094 162.529 33.3611C162.736 33.3128 162.951 33.3091 163.16 33.35C164.53 33.56 166.46 35.35 168.29 37.49C167.67 35.79 167.24 33.95 167.7 32.9C167.791 32.6786 167.934 32.4823 168.116 32.3275C168.299 32.1726 168.516 32.0638 168.75 32.01C169.054 31.9395 169.37 31.9315 169.677 31.9865C169.985 32.0415 170.278 32.1584 170.54 32.33C172.97 33.79 175.07 39.19 175.89 42.47C176.96 46.76 176.99 46.85 178.4 51.47L180.4 57.98C180.424 58.0936 180.405 58.2124 180.346 58.3124C180.287 58.4125 180.192 58.4864 180.081 58.5194C179.969 58.5523 179.849 58.5418 179.745 58.49C179.641 58.4382 179.56 58.3489 179.52 58.24C178.66 55.35 178.04 53.24 177.57 51.74C176.15 47.05 176.12 46.96 175.04 42.64C174 39 172 34.37 170 33.21C169.842 33.0989 169.662 33.022 169.473 32.9841C169.283 32.9463 169.088 32.9483 168.9 32.99C168.801 33.0108 168.71 33.0554 168.633 33.1199C168.556 33.1845 168.497 33.2669 168.46 33.36C167.87 34.71 169.55 38.76 170.75 40.99C170.793 41.092 170.797 41.206 170.763 41.3113C170.729 41.4165 170.658 41.5059 170.563 41.563C170.468 41.6201 170.356 41.6412 170.247 41.6223C170.138 41.6033 170.04 41.5457 169.97 41.46C167.38 37.56 164.43 34.57 162.97 34.34C162.888 34.3178 162.802 34.3144 162.719 34.3299C162.636 34.3455 162.558 34.3798 162.49 34.43C162.42 35.43 164.6 38.19 166.66 40.43C167.268 40.9986 167.843 41.603 168.38 42.24C168.46 42.3289 168.503 42.4462 168.497 42.5662C168.491 42.6863 168.438 42.7991 168.35 42.88C168.261 42.9609 168.143 43.0032 168.023 42.9976C167.903 42.992 167.79 42.9389 167.71 42.85C167.4 42.55 166.71 41.85 165.98 41.05C163.18 38.45 159.85 36.69 158.51 36.68C158.29 36.68 158.2 36.68 158.16 36.76C158.16 37.51 162.16 41.09 165.81 43.93C165.893 43.9935 165.952 44.0843 165.976 44.1866C165.999 44.2888 165.987 44.3962 165.94 44.49C165.893 44.5829 165.816 44.6572 165.721 44.7008C165.627 44.7444 165.521 44.7547 165.42 44.73C163.82 44.34 159.33 43.37 157.88 43.65C156.73 43.86 155.8 45.04 155.88 45.5C155.88 45.64 156.19 45.66 156.32 45.66C159.358 45.9992 162.367 46.5674 165.32 47.36C165.89 47.57 166.22 48.75 166.08 49.53C166.032 49.887 165.851 50.2127 165.572 50.4411C165.294 50.6694 164.939 50.7835 164.58 50.76V50.76C163.91 50.76 162.82 50.16 161.12 49.19C159.99 48.53 157.89 47.32 157.43 47.49C157.478 47.9183 157.611 48.3328 157.82 48.71C158.6 50.39 164.96 53.32 167.35 54.31C167.421 54.3377 167.483 54.3837 167.531 54.4434C167.578 54.5032 167.609 54.5745 167.62 54.65L168.74 60.85C168.76 60.9693 168.733 61.0918 168.663 61.191C168.594 61.2902 168.489 61.3581 168.37 61.38L168.26 61.4ZM158.54 46.84C159.573 47.293 160.575 47.8142 161.54 48.4C162.468 49.021 163.478 49.5122 164.54 49.86V49.86C164.93 49.86 165.05 49.69 165.1 49.54C165.163 49.3119 165.178 49.0731 165.143 48.8389C165.109 48.6047 165.026 48.3803 164.9 48.18C164.68 48.11 161.15 47.27 158.54 46.84V46.84Z" fill="#28536B"/>
<path d="M147.159 50.9098L147.449 59.7198L149.319 62.0998L152.509 61.9898L152.749 67.0398L154.479 67.7998C154.479 67.7998 153.479 68.7298 153.559 69.2898C153.639 69.8498 155.019 70.2898 155.019 70.2898C155.019 70.2898 153.999 70.9998 153.999 71.6398C153.89 72.6229 153.951 73.6175 154.179 74.5798L155.229 75.5098C155.057 75.5881 154.915 75.7202 154.825 75.8862C154.735 76.0522 154.701 76.243 154.729 76.4298C154.902 76.9411 155.231 77.3852 155.669 77.6998C155.669 77.6998 154.869 78.4698 154.989 79.1098C155.109 79.7498 157.609 82.1098 157.609 82.1098L159.809 79.5898L159.189 60.7798L161.849 57.8398L161.519 47.9098C161.506 47.6059 161.424 47.309 161.278 47.0416C161.133 46.7743 160.929 46.5436 160.681 46.3672C160.433 46.1907 160.148 46.0731 159.848 46.0233C159.548 45.9735 159.241 45.9929 158.949 46.0798L148.779 49.2298L147.159 50.9098ZM154.689 48.5998C154.689 48.5998 158.499 47.1198 159.049 47.2698C159.599 47.4198 159.169 50.8498 159.169 50.8498L155.069 51.5198L154.689 48.5998Z" fill="#FDCB2E"/>
<path d="M157.569 82.57C157.455 82.5691 157.345 82.5264 157.259 82.45C156.259 81.53 154.609 79.88 154.499 79.18C154.467 78.6589 154.639 78.1457 154.979 77.75C154.611 77.4167 154.35 76.9817 154.229 76.5C154.2 76.3244 154.207 76.1445 154.252 75.9721C154.297 75.7997 154.378 75.6388 154.489 75.5L153.829 74.9C153.289 74.4 153.499 71.62 153.499 71.59C153.588 71.1443 153.816 70.7382 154.149 70.43C153.689 70.2 153.149 69.84 153.149 69.36C153.154 68.8533 153.35 68.3673 153.699 68L152.569 67.5C152.492 67.4666 152.426 67.4123 152.379 67.3434C152.331 67.2745 152.304 67.1937 152.299 67.11L152.069 62.52L149.339 62.61C149.268 62.6115 149.197 62.596 149.133 62.5647C149.068 62.5334 149.012 62.4872 148.969 62.43L147.089 60C147.031 59.9212 146.997 59.8276 146.989 59.73L146.699 50.93C146.698 50.8691 146.709 50.8086 146.731 50.7519C146.754 50.6953 146.787 50.6436 146.829 50.6L148.399 48.93C148.457 48.8743 148.525 48.8302 148.599 48.8L158.769 45.65C159.128 45.5393 159.508 45.5127 159.879 45.5722C160.25 45.6318 160.603 45.7759 160.909 45.9934C161.216 46.2109 161.468 46.496 161.646 46.8266C161.825 47.1572 161.925 47.5244 161.939 47.9L162.259 57.84C162.264 57.898 162.257 57.9564 162.238 58.0115C162.219 58.0666 162.189 58.1172 162.149 58.16L159.609 61L160.229 79.63C160.228 79.7426 160.189 79.8516 160.119 79.94L157.919 82.46C157.879 82.5057 157.83 82.5427 157.775 82.5685C157.72 82.5943 157.66 82.6084 157.599 82.61L157.569 82.57ZM153.199 66.73L154.669 67.38C154.738 67.413 154.797 67.462 154.842 67.523C154.888 67.5839 154.917 67.655 154.929 67.73C154.942 67.8046 154.936 67.8813 154.912 67.9529C154.887 68.0246 154.845 68.0889 154.789 68.14C154.379 68.51 153.989 69.04 154.009 69.21C154.325 69.5315 154.723 69.7599 155.159 69.87C155.239 69.8996 155.309 69.9493 155.363 70.0142C155.417 70.079 155.454 70.1568 155.469 70.24C155.481 70.3247 155.469 70.4112 155.433 70.4891C155.398 70.567 155.341 70.6332 155.269 70.68C154.939 70.91 154.439 71.39 154.419 71.68C154.336 72.5565 154.363 73.4401 154.499 74.31C154.699 74.47 155.499 75.17 155.499 75.17C155.556 75.2205 155.6 75.2845 155.626 75.356C155.652 75.4276 155.66 75.5046 155.649 75.58C155.638 75.6566 155.608 75.7291 155.56 75.7904C155.513 75.8517 155.451 75.8998 155.379 75.93C155.299 75.9663 155.233 76.0281 155.191 76.1059C155.15 76.1836 155.135 76.273 155.149 76.36C155.199 76.71 155.689 77.16 155.909 77.36C155.963 77.3998 156.008 77.4507 156.041 77.5094C156.074 77.568 156.094 77.633 156.099 77.7C156.099 77.8082 156.064 77.9134 155.999 78C155.749 78.24 155.399 78.73 155.449 79C156.057 79.8975 156.776 80.7141 157.589 81.43L159.359 79.43L158.739 60.79C158.74 60.6724 158.782 60.5588 158.859 60.47L161.389 57.67L160.999 47.93C160.993 47.6928 160.931 47.4604 160.818 47.2515C160.706 47.0425 160.546 46.8628 160.352 46.7268C160.157 46.5907 159.934 46.502 159.699 46.4678C159.464 46.4337 159.224 46.4549 158.999 46.53L148.999 49.64L147.629 51.09L147.909 59.55L149.549 61.64L152.549 61.54C152.67 61.5426 152.784 61.5922 152.868 61.6782C152.952 61.7642 152.999 61.8797 152.999 62L153.199 66.73ZM155.069 52C154.969 52.0007 154.871 51.9692 154.789 51.91C154.693 51.8324 154.629 51.722 154.609 51.6L154.239 48.68C154.224 48.5787 154.245 48.4754 154.298 48.3878C154.351 48.3002 154.433 48.2338 154.529 48.2C156.329 47.5 158.589 46.7 159.159 46.84C159.469 46.92 160.089 47.09 159.619 50.93C159.607 51.0276 159.564 51.1185 159.495 51.189C159.426 51.2594 159.337 51.3054 159.239 51.32L155.139 51.99L155.069 52ZM155.189 48.92L155.459 51.01L158.749 50.48C158.875 49.5721 158.896 48.6525 158.809 47.74C157.577 48.0411 156.367 48.4287 155.189 48.9V48.92Z" fill="#28536B"/>
<path d="M158.19 79.54C158.072 79.54 157.959 79.494 157.875 79.4117C157.791 79.3295 157.743 79.2176 157.74 79.1L157.13 60.75C157.127 60.6297 157.172 60.5131 157.254 60.4252C157.336 60.3373 157.45 60.2852 157.57 60.28C157.63 60.2773 157.69 60.2866 157.746 60.3074C157.802 60.3282 157.854 60.36 157.898 60.401C157.941 60.442 157.977 60.4914 158.001 60.5461C158.025 60.6009 158.039 60.66 158.04 60.72L158.65 79.07C158.653 79.1903 158.608 79.3069 158.526 79.3948C158.444 79.4827 158.33 79.5348 158.21 79.54H158.19Z" fill="#28536B"/>
<path d="M151.779 60.35C151.706 60.3489 151.635 60.3318 151.569 60.3L149.239 59.07C149.175 59.0369 149.119 58.9886 149.078 58.9295C149.036 58.8703 149.009 58.8018 148.999 58.73L148.139 52.24C148.12 52.1405 148.138 52.0375 148.189 51.95L149.109 50.29C149.164 50.198 149.249 50.1274 149.349 50.09L153.219 48.65C153.281 48.6227 153.347 48.6086 153.414 48.6086C153.481 48.6086 153.548 48.6227 153.609 48.65C153.669 48.6846 153.719 48.7323 153.757 48.7895C153.796 48.8467 153.82 48.9119 153.829 48.98L154.309 52.44L158.309 52.09C158.37 52.0842 158.432 52.0909 158.491 52.1098C158.549 52.1288 158.603 52.1595 158.649 52.2C158.695 52.242 158.732 52.2929 158.758 52.3496C158.784 52.4064 158.798 52.4677 158.799 52.53L158.989 58.07C158.99 58.1735 158.956 58.2741 158.892 58.3558C158.829 58.4374 158.74 58.4953 158.639 58.52L151.859 60.3L151.779 60.35ZM149.879 58.35L151.879 59.35L158.139 57.71L157.999 53.08L153.999 53.43C153.882 53.4416 153.764 53.4075 153.671 53.335C153.578 53.2624 153.517 53.1568 153.499 53.04L152.999 49.71L149.829 50.88L149.059 52.27L149.879 58.35Z" fill="#28536B"/>
<path d="M158.9 47.25C158.428 46.9003 157.914 46.6113 157.37 46.39C157.098 46.2341 156.798 46.1342 156.487 46.0964C156.176 46.0587 155.861 46.0837 155.56 46.17C155.425 46.2587 155.314 46.3787 155.235 46.5197C155.157 46.6608 155.114 46.8187 155.11 46.98C155.102 47.3036 155.167 47.6247 155.3 47.92C155.77 49.02 157.73 50.08 158.88 50.38" fill="white"/>
<path d="M158.88 50.83H158.77C157.49 50.5 155.43 49.38 154.88 48.11C154.715 47.7498 154.636 47.356 154.65 46.96C154.664 46.7266 154.732 46.4995 154.848 46.2966C154.964 46.0937 155.126 45.9203 155.32 45.79C156.13 45.29 157.51 45.96 157.57 45.99L158 46.2C158.418 46.3782 158.812 46.6102 159.17 46.89C159.22 46.9246 159.262 46.9691 159.294 47.0208C159.326 47.0725 159.347 47.1302 159.355 47.1903C159.363 47.2504 159.359 47.3116 159.343 47.3701C159.327 47.4285 159.298 47.483 159.26 47.53C159.187 47.6261 159.078 47.6895 158.959 47.7063C158.839 47.7231 158.717 47.6921 158.62 47.62C158.317 47.3757 157.98 47.177 157.62 47.03L157.17 46.81C156.76 46.571 156.277 46.486 155.81 46.57C155.739 46.6243 155.68 46.6937 155.639 46.7732C155.597 46.8527 155.574 46.9404 155.57 47.03C155.569 47.2789 155.623 47.525 155.73 47.75C156.13 48.67 157.96 49.68 159 49.95C159.11 49.9732 159.208 50.037 159.273 50.1288C159.339 50.2206 159.368 50.3336 159.354 50.4455C159.34 50.5574 159.285 50.66 159.199 50.7331C159.113 50.8061 159.003 50.8443 158.89 50.84L158.88 50.83Z" fill="#28536B"/>
<path d="M242.51 105.5C242.44 105.501 242.37 105.486 242.306 105.456C242.242 105.427 242.186 105.384 242.14 105.33C242.093 105.284 242.056 105.228 242.031 105.167C242.005 105.106 241.992 105.041 241.992 104.975C241.992 104.909 242.005 104.844 242.031 104.783C242.056 104.722 242.093 104.667 242.14 104.62L252.24 95.72L248.33 90.08C248.26 89.9778 248.229 89.8533 248.243 89.7299C248.258 89.6066 248.317 89.4928 248.41 89.41L255.57 83.32C250.66 75.65 250.67 75.2 250.68 75.02C250.692 74.89 250.752 74.7691 250.848 74.6805C250.944 74.592 251.07 74.5419 251.2 74.54C251.319 74.5459 251.432 74.5931 251.519 74.6735C251.607 74.7538 251.664 74.8622 251.68 74.98C251.88 75.57 254.38 79.61 256.68 83.14C256.747 83.2415 256.774 83.3642 256.755 83.4843C256.737 83.6044 256.674 83.7134 256.58 83.79L249.43 89.88L253.35 95.52C253.418 95.6214 253.447 95.7438 253.432 95.8649C253.418 95.986 253.36 96.0978 253.27 96.18L242.83 105.37C242.744 105.453 242.63 105.5 242.51 105.5V105.5Z" fill="white"/>
<path d="M224.55 107.12C224.455 107.12 224.362 107.093 224.282 107.042C224.202 106.99 224.139 106.917 224.1 106.83L219.65 97.52C219.611 97.4479 219.59 97.3671 219.59 97.285C219.59 97.2028 219.611 97.122 219.65 97.05L223.65 90.17L218.77 86.73C218.711 86.6912 218.661 86.6396 218.625 86.579C218.589 86.5184 218.566 86.4503 218.56 86.38C218.552 86.3102 218.559 86.2396 218.579 86.1724C218.6 86.1053 218.634 86.0432 218.68 85.99L226.81 76.89C226.899 76.7971 227.021 76.7422 227.15 76.7368C227.278 76.7314 227.404 76.7759 227.501 76.861C227.598 76.9461 227.658 77.0652 227.669 77.1936C227.68 77.322 227.641 77.4496 227.56 77.55L219.8 86.24L224.6 89.61C224.701 89.6826 224.772 89.7907 224.798 89.9128C224.824 90.0349 224.803 90.1623 224.74 90.27L220.62 97.33L225 106.4C225.029 106.46 225.045 106.524 225.049 106.591C225.052 106.657 225.042 106.723 225.02 106.785C224.998 106.847 224.963 106.905 224.918 106.954C224.874 107.003 224.82 107.042 224.76 107.07C224.694 107.101 224.623 107.118 224.55 107.12V107.12Z" fill="white"/>
<path d="M209.25 137.17C209.163 137.169 209.077 137.146 209.002 137.102C208.926 137.058 208.863 136.995 208.82 136.92C208.786 136.863 208.763 136.8 208.754 136.734C208.745 136.668 208.748 136.601 208.765 136.537C208.782 136.473 208.811 136.413 208.852 136.36C208.892 136.307 208.942 136.263 209 136.23L217.7 131.23C217.813 131.179 217.94 131.172 218.058 131.209C218.176 131.247 218.276 131.327 218.338 131.434C218.4 131.541 218.421 131.668 218.395 131.789C218.369 131.91 218.3 132.017 218.2 132.09L209.5 137.09C209.424 137.135 209.338 137.162 209.25 137.17V137.17Z" fill="white"/>
<path d="M167.71 140.32H147.22C147.087 140.32 146.96 140.267 146.866 140.173C146.772 140.08 146.72 139.952 146.72 139.82V121.37C146.722 121.238 146.776 121.112 146.869 121.019C146.962 120.926 147.088 120.872 147.22 120.87H167.71C167.842 120.87 167.97 120.923 168.063 121.016C168.157 121.11 168.21 121.237 168.21 121.37V139.82C168.21 139.952 168.157 140.08 168.063 140.173C167.97 140.267 167.842 140.32 167.71 140.32ZM147.71 139.32H167.2V121.87H147.72L147.71 139.32Z" fill="#35CE8D"/>
<path d="M157.469 113.69L170.489 121.37H144.439L157.469 113.69Z" fill="#35CE8D"/>
<path d="M170.49 121.87H144.44C144.33 121.869 144.224 121.833 144.138 121.766C144.051 121.699 143.988 121.606 143.96 121.5C143.93 121.394 143.936 121.282 143.978 121.18C144.02 121.079 144.094 120.994 144.19 120.94L157.19 113.26C157.268 113.216 157.356 113.193 157.445 113.193C157.534 113.193 157.622 113.216 157.7 113.26L170.7 120.94C170.795 120.994 170.87 121.079 170.912 121.18C170.953 121.282 170.96 121.394 170.93 121.5C170.904 121.599 170.847 121.688 170.768 121.754C170.69 121.821 170.592 121.861 170.49 121.87ZM146.28 120.87H168.66L157.47 114.27L146.28 120.87Z" fill="#35CE8D"/>
<path d="M160.35 140.26H155.35C155.217 140.26 155.09 140.207 154.996 140.113C154.902 140.02 154.85 139.893 154.85 139.76V131.91C154.85 131.777 154.902 131.65 154.996 131.556C155.09 131.463 155.217 131.41 155.35 131.41H160.35C160.482 131.41 160.609 131.463 160.703 131.556C160.797 131.65 160.85 131.777 160.85 131.91V139.76C160.85 139.893 160.797 140.02 160.703 140.113C160.609 140.207 160.482 140.26 160.35 140.26ZM155.83 139.26H159.83V132.41H155.83V139.26Z" fill="#35CE8D"/>
<path d="M147.22 123.17H133.98L128.35 130.6H147.22V123.17Z" fill="#35CE8D"/>
<path d="M147.22 131.1H128.35C128.256 131.1 128.164 131.074 128.085 131.024C128.005 130.975 127.941 130.904 127.9 130.82C127.851 130.742 127.825 130.652 127.825 130.56C127.825 130.468 127.851 130.378 127.9 130.3L133.53 122.87C133.577 122.809 133.638 122.759 133.707 122.725C133.776 122.69 133.853 122.671 133.93 122.67H147.17C147.302 122.67 147.43 122.723 147.523 122.816C147.617 122.91 147.67 123.037 147.67 123.17V130.6C147.67 130.724 147.625 130.844 147.542 130.937C147.458 131.029 147.344 131.087 147.22 131.1V131.1ZM129.35 130.1H146.72V123.67H134.23L129.35 130.1Z" fill="#35CE8D"/>
<path d="M147.22 140.32H129.79C129.657 140.32 129.53 140.267 129.436 140.173C129.343 140.08 129.29 139.952 129.29 139.82V130.6C129.29 130.467 129.343 130.34 129.436 130.246C129.53 130.153 129.657 130.1 129.79 130.1H147.22C147.353 130.1 147.48 130.153 147.574 130.246C147.667 130.34 147.72 130.467 147.72 130.6V139.82C147.72 139.952 147.667 140.08 147.574 140.173C147.48 140.267 147.353 140.32 147.22 140.32ZM130.29 139.32H146.72V131.1H130.29V139.32Z" fill="#35CE8D"/>
<path d="M165.96 133.22H148.97L150.52 130.6H164.41L165.96 133.22Z" fill="#35CE8D"/>
<path d="M165.999 133.72H148.999C148.912 133.717 148.826 133.692 148.751 133.647C148.676 133.602 148.613 133.538 148.57 133.461C148.527 133.385 148.504 133.298 148.504 133.211C148.504 133.123 148.526 133.036 148.57 132.96L150.119 130.34C150.164 130.266 150.228 130.205 150.303 130.163C150.378 130.121 150.463 130.099 150.549 130.1H164.439C164.526 130.099 164.611 130.121 164.686 130.163C164.761 130.205 164.825 130.266 164.869 130.34L166.419 132.96C166.463 133.036 166.485 133.123 166.485 133.211C166.485 133.298 166.462 133.385 166.419 133.461C166.376 133.538 166.313 133.602 166.238 133.647C166.163 133.692 166.077 133.717 165.99 133.72H165.999ZM149.889 132.72H165.119L164.119 131.1H150.809L149.889 132.72Z" fill="#35CE8D"/>
<path d="M162.7 129.5H152.47C152.337 129.5 152.21 129.447 152.116 129.354C152.022 129.26 151.97 129.133 151.97 129V124.77C151.97 124.637 152.022 124.51 152.116 124.416C152.21 124.323 152.337 124.27 152.47 124.27H162.7C162.832 124.273 162.957 124.326 163.05 124.419C163.144 124.513 163.197 124.638 163.2 124.77V129C163.197 129.132 163.144 129.258 163.05 129.351C162.957 129.444 162.832 129.497 162.7 129.5ZM152.97 128.5H162.2V125.27H153L152.97 128.5Z" fill="#35CE8D"/>
<path d="M136.809 137.33H133.199C133.067 137.33 132.939 137.277 132.846 137.184C132.752 137.09 132.699 136.963 132.699 136.83V133.22C132.699 133.087 132.752 132.96 132.846 132.866C132.939 132.773 133.067 132.72 133.199 132.72H136.809C136.942 132.72 137.069 132.773 137.163 132.866C137.257 132.96 137.309 133.087 137.309 133.22V136.83C137.309 136.963 137.257 137.09 137.163 137.184C137.069 137.277 136.942 137.33 136.809 137.33ZM133.699 136.33H136.309V133.72H133.699V136.33Z" fill="#35CE8D"/>
<path d="M143.38 137.33H139.77C139.637 137.33 139.51 137.277 139.416 137.184C139.322 137.09 139.27 136.963 139.27 136.83V133.22C139.27 133.087 139.322 132.96 139.416 132.866C139.51 132.773 139.637 132.72 139.77 132.72H143.38C143.512 132.72 143.639 132.773 143.733 132.866C143.827 132.96 143.88 133.087 143.88 133.22V136.83C143.88 136.963 143.827 137.09 143.733 137.184C143.639 137.277 143.512 137.33 143.38 137.33ZM140.27 136.33H142.88V133.72H140.27V136.33Z" fill="#35CE8D"/>
<path d="M153.58 138.05H151.06C150.927 138.05 150.8 137.997 150.706 137.904C150.612 137.81 150.56 137.683 150.56 137.55V135C150.56 134.867 150.612 134.74 150.706 134.646C150.8 134.553 150.927 134.5 151.06 134.5H153.58C153.712 134.5 153.839 134.553 153.933 134.646C154.027 134.74 154.08 134.867 154.08 135V137.53C154.082 137.597 154.071 137.665 154.047 137.727C154.023 137.79 153.987 137.848 153.94 137.897C153.894 137.945 153.838 137.984 153.776 138.01C153.714 138.036 153.647 138.05 153.58 138.05V138.05ZM151.58 137.05H153.1V135.52H151.58V137.05Z" fill="#35CE8D"/>
<path d="M164.45 138.05H161.92C161.788 138.047 161.662 137.994 161.569 137.901C161.476 137.808 161.422 137.682 161.42 137.55V135C161.422 134.868 161.476 134.742 161.569 134.649C161.662 134.556 161.788 134.503 161.92 134.5H164.45C164.582 134.503 164.707 134.556 164.801 134.649C164.894 134.742 164.947 134.868 164.95 135V137.53C164.951 137.597 164.939 137.664 164.915 137.726C164.891 137.788 164.854 137.845 164.808 137.894C164.761 137.942 164.706 137.981 164.644 138.007C164.583 138.034 164.517 138.049 164.45 138.05ZM162.45 137.05H164V135.52H162.47L162.45 137.05Z" fill="#35CE8D"/>
<path d="M180.28 140.32H167.71C167.577 140.32 167.45 140.267 167.356 140.174C167.263 140.08 167.21 139.953 167.21 139.82V129.82C167.21 129.687 167.263 129.56 167.356 129.467C167.45 129.373 167.577 129.32 167.71 129.32H180.28C180.413 129.32 180.54 129.373 180.634 129.467C180.727 129.56 180.78 129.687 180.78 129.82V139.82C180.78 139.953 180.727 140.08 180.634 140.174C180.54 140.267 180.413 140.32 180.28 140.32ZM168.21 139.32H179.78V130.32H168.21V139.32Z" fill="#35CE8D"/>
<path d="M177.779 132.47H170.489V139.76H177.779V132.47Z" fill="#35CE8D"/>
<path d="M177.779 140.26H170.489C170.357 140.26 170.229 140.207 170.136 140.114C170.042 140.02 169.989 139.893 169.989 139.76V132.47C169.989 132.337 170.042 132.21 170.136 132.116C170.229 132.023 170.357 131.97 170.489 131.97H177.779C177.912 131.97 178.039 132.023 178.133 132.116C178.227 132.21 178.279 132.337 178.279 132.47V139.76C178.279 139.893 178.227 140.02 178.133 140.114C178.039 140.207 177.912 140.26 177.779 140.26ZM170.989 139.26H177.279V133H170.999L170.989 139.26Z" fill="#35CE8D"/>
<path d="M167.71 125.61H179.03L183.44 129.84H167.71V125.61Z" fill="#35CE8D"/>
<path d="M183.44 130.34H167.71C167.578 130.337 167.452 130.284 167.359 130.191C167.266 130.097 167.213 129.972 167.21 129.84V125.61C167.213 125.478 167.266 125.352 167.359 125.259C167.452 125.166 167.578 125.112 167.71 125.11H179C179.063 125.11 179.126 125.122 179.184 125.146C179.242 125.17 179.295 125.205 179.34 125.25L183.76 129.48C183.83 129.548 183.878 129.637 183.898 129.733C183.918 129.829 183.908 129.929 183.87 130.02C183.836 130.109 183.778 130.186 183.701 130.242C183.625 130.299 183.535 130.333 183.44 130.34ZM168.21 129.34H182.21L178.85 126.11H168.21V129.34Z" fill="#35CE8D"/>
<path d="M174.05 265.47H150.55C150.441 265.454 150.341 265.399 150.269 265.315C150.197 265.232 150.157 265.125 150.157 265.015C150.157 264.905 150.197 264.798 150.269 264.715C150.341 264.631 150.441 264.576 150.55 264.56H174.05C174.115 264.55 174.182 264.555 174.245 264.573C174.309 264.592 174.368 264.623 174.418 264.667C174.468 264.71 174.508 264.763 174.535 264.823C174.563 264.883 174.577 264.949 174.577 265.015C174.577 265.081 174.563 265.146 174.535 265.207C174.508 265.267 174.468 265.32 174.418 265.363C174.368 265.406 174.309 265.438 174.245 265.457C174.182 265.475 174.115 265.48 174.05 265.47Z" fill="#28536B"/>
<path d="M124.483 155.077C123.772 155.077 123.123 154.912 122.536 154.582C121.949 154.245 121.484 153.779 121.139 153.185C120.802 152.584 120.633 151.909 120.633 151.161C120.633 150.413 120.802 149.742 121.139 149.148C121.484 148.547 121.949 148.081 122.536 147.751C123.123 147.414 123.772 147.245 124.483 147.245C125.202 147.245 125.854 147.414 126.441 147.751C127.028 148.081 127.49 148.543 127.827 149.137C128.164 149.731 128.333 150.406 128.333 151.161C128.333 151.916 128.164 152.591 127.827 153.185C127.49 153.779 127.028 154.245 126.441 154.582C125.854 154.912 125.202 155.077 124.483 155.077ZM124.483 154.208C125.018 154.208 125.499 154.083 125.924 153.834C126.357 153.585 126.694 153.229 126.936 152.767C127.185 152.305 127.31 151.77 127.31 151.161C127.31 150.545 127.185 150.01 126.936 149.555C126.694 149.093 126.36 148.737 125.935 148.488C125.51 148.239 125.026 148.114 124.483 148.114C123.94 148.114 123.456 148.239 123.031 148.488C122.606 148.737 122.268 149.093 122.019 149.555C121.777 150.01 121.656 150.545 121.656 151.161C121.656 151.77 121.777 152.305 122.019 152.767C122.268 153.229 122.606 153.585 123.031 153.834C123.464 154.083 123.948 154.208 124.483 154.208ZM134.781 149.577C134.781 150.215 134.561 150.747 134.121 151.172C133.688 151.59 133.024 151.799 132.13 151.799H130.656V155H129.655V147.333H132.13C132.995 147.333 133.651 147.542 134.099 147.96C134.553 148.378 134.781 148.917 134.781 149.577ZM132.13 150.974C132.687 150.974 133.098 150.853 133.362 150.611C133.626 150.369 133.758 150.024 133.758 149.577C133.758 148.631 133.215 148.158 132.13 148.158H130.656V150.974H132.13ZM137.026 148.147V150.71H139.82V151.535H137.026V154.175H140.15V155H136.025V147.322H140.15V148.147H137.026ZM147.692 155H146.691L142.665 148.895V155H141.664V147.322H142.665L146.691 153.416V147.322H147.692V155ZM154.762 155.077C154.256 155.077 153.802 154.989 153.398 154.813C153.002 154.63 152.691 154.38 152.463 154.065C152.236 153.742 152.119 153.372 152.111 152.954H153.178C153.215 153.313 153.362 153.618 153.618 153.867C153.882 154.109 154.264 154.23 154.762 154.23C155.239 154.23 155.613 154.113 155.884 153.878C156.163 153.636 156.302 153.328 156.302 152.954C156.302 152.661 156.222 152.422 156.06 152.239C155.899 152.056 155.697 151.916 155.455 151.821C155.213 151.726 154.887 151.623 154.476 151.513C153.97 151.381 153.563 151.249 153.255 151.117C152.955 150.985 152.694 150.78 152.474 150.501C152.262 150.215 152.155 149.834 152.155 149.357C152.155 148.939 152.262 148.569 152.474 148.246C152.687 147.923 152.984 147.674 153.365 147.498C153.754 147.322 154.198 147.234 154.696 147.234C155.415 147.234 156.002 147.414 156.456 147.773C156.918 148.132 157.179 148.609 157.237 149.203H156.137C156.101 148.91 155.947 148.653 155.675 148.433C155.404 148.206 155.045 148.092 154.597 148.092C154.179 148.092 153.838 148.202 153.574 148.422C153.31 148.635 153.178 148.935 153.178 149.324C153.178 149.603 153.255 149.83 153.409 150.006C153.571 150.182 153.765 150.318 153.992 150.413C154.227 150.501 154.553 150.604 154.971 150.721C155.477 150.86 155.884 151 156.192 151.139C156.5 151.271 156.764 151.48 156.984 151.766C157.204 152.045 157.314 152.426 157.314 152.91C157.314 153.284 157.215 153.636 157.017 153.966C156.819 154.296 156.526 154.564 156.137 154.769C155.749 154.974 155.29 155.077 154.762 155.077ZM162.263 155.077C161.552 155.077 160.903 154.912 160.316 154.582C159.73 154.245 159.264 153.779 158.919 153.185C158.582 152.584 158.413 151.909 158.413 151.161C158.413 150.413 158.582 149.742 158.919 149.148C159.264 148.547 159.73 148.081 160.316 147.751C160.903 147.414 161.552 147.245 162.263 147.245C162.982 147.245 163.635 147.414 164.221 147.751C164.808 148.081 165.27 148.543 165.607 149.137C165.945 149.731 166.113 150.406 166.113 151.161C166.113 151.916 165.945 152.591 165.607 153.185C165.27 153.779 164.808 154.245 164.221 154.582C163.635 154.912 162.982 155.077 162.263 155.077ZM162.263 154.208C162.799 154.208 163.279 154.083 163.704 153.834C164.137 153.585 164.474 153.229 164.716 152.767C164.966 152.305 165.09 151.77 165.09 151.161C165.09 150.545 164.966 150.01 164.716 149.555C164.474 149.093 164.141 148.737 163.715 148.488C163.29 148.239 162.806 148.114 162.263 148.114C161.721 148.114 161.237 148.239 160.811 148.488C160.386 148.737 160.049 149.093 159.799 149.555C159.557 150.01 159.436 150.545 159.436 151.161C159.436 151.77 159.557 152.305 159.799 152.767C160.049 153.229 160.386 153.585 160.811 153.834C161.244 154.083 161.728 154.208 162.263 154.208ZM168.414 147.333V152.184C168.414 152.866 168.579 153.372 168.909 153.702C169.246 154.032 169.712 154.197 170.306 154.197C170.893 154.197 171.351 154.032 171.681 153.702C172.018 153.372 172.187 152.866 172.187 152.184V147.333H173.188V152.173C173.188 152.811 173.06 153.35 172.803 153.79C172.546 154.223 172.198 154.545 171.758 154.758C171.325 154.971 170.838 155.077 170.295 155.077C169.752 155.077 169.261 154.971 168.821 154.758C168.388 154.545 168.044 154.223 167.787 153.79C167.538 153.35 167.413 152.811 167.413 152.173V147.333H168.414ZM178.895 155L177.069 151.865H175.859V155H174.858V147.333H177.333C177.912 147.333 178.4 147.432 178.796 147.63C179.199 147.828 179.5 148.096 179.698 148.433C179.896 148.77 179.995 149.155 179.995 149.588C179.995 150.116 179.841 150.582 179.533 150.985C179.232 151.388 178.777 151.656 178.169 151.788L180.094 155H178.895ZM175.859 151.062H177.333C177.875 151.062 178.282 150.93 178.554 150.666C178.825 150.395 178.961 150.035 178.961 149.588C178.961 149.133 178.825 148.781 178.554 148.532C178.29 148.283 177.883 148.158 177.333 148.158H175.859V151.062ZM181.176 151.161C181.176 150.413 181.345 149.742 181.682 149.148C182.019 148.547 182.478 148.077 183.057 147.74C183.644 147.403 184.293 147.234 185.004 147.234C185.84 147.234 186.57 147.436 187.193 147.839C187.816 148.242 188.271 148.814 188.557 149.555H187.358C187.145 149.093 186.837 148.737 186.434 148.488C186.038 148.239 185.561 148.114 185.004 148.114C184.469 148.114 183.988 148.239 183.563 148.488C183.138 148.737 182.804 149.093 182.562 149.555C182.32 150.01 182.199 150.545 182.199 151.161C182.199 151.77 182.32 152.305 182.562 152.767C182.804 153.222 183.138 153.574 183.563 153.823C183.988 154.072 184.469 154.197 185.004 154.197C185.561 154.197 186.038 154.076 186.434 153.834C186.837 153.585 187.145 153.229 187.358 152.767H188.557C188.271 153.5 187.816 154.069 187.193 154.472C186.57 154.868 185.84 155.066 185.004 155.066C184.293 155.066 183.644 154.901 183.057 154.571C182.478 154.234 182.019 153.768 181.682 153.174C181.345 152.58 181.176 151.909 181.176 151.161ZM191.048 148.147V150.71H193.842V151.535H191.048V154.175H194.172V155H190.047V147.322H194.172V148.147H191.048Z" fill="#35CE8D"/>
</svg>
